PathFileType	4	(X/Y/Z)	C:/Users/beibeiliu/ov580/test_trc/User1\sequence.16_training_dense_left.trc
DataRate	CameraRate	NumFrames	NumMarkers	Units	OrigDataRate	OrigDataStartFrame	OrigNumFrames
120	120	20	19	mm	120	202	268
Frame#	Time	ThumbCMC			ThumbMCP			ThumbIP			ThumbTip			IndexMCP			IndexPIP			IndexTip			MiddleMCP			MiddlePIP			MiddleTip			RingMCP			RingPIP			RingTip			PinkyMCP			PinkyPIP			PinkyTip			BackHand1			BackHand2			BackHand3	
		X0	Y0	Z0	X1	Y1	Z1	X2	Y2	Z2	X3	Y3	Z3	X4	Y4	Z4	X5	Y5	Z5	X6	Y6	Z6	X7	Y7	Z7	X8	Y8	Z8	X9	Y9	Z9	X10	Y10	Z10	X11	Y11	Z11	X12	Y12	Z12	X13	Y13	Z13	X14	Y14	Z14	X15	Y15	Z15	X16	Y16	Z16	X17	Y17	Z17	X18	Y18	Z18	
201	1.675	-191.691	72.3372	45.8545	-167.319	69.3746	32.6589	-150.057	77.4963	15.3475	-132.55	79.7108	-0.0769303	-190.214	93.4846	-36.8695	-194.821	59.8566	-43.7528	-198.499	52.2973	-12.3901	-211.074	94.5633	-44.4998	-211.62	56.6875	-45.0547	-217.058	48.3806	-9.11399	-237.226	93.9712	-47.5229	-233.608	59.1292	-49.051	-232.626	50.5036	-15.3423	-267.33	106.089	-31.6069	-273.782	110.951	-50.7576	-278.759	122.057	-66.7502	-246.569	111.198	13.9953	-253.996	97.582	50.2235	-217.588	102.256	41.655	
202	1.68333	-192.037	69.0511	48.1613	-170.723	71.9642	26.7319	-149.628	77.4455	12.7733	-128.737	77.438	1.73119	-188.524	92.9291	-36.1783	-194.567	59.014	-46.7118	-201.892	52.3101	-13.4058	-212.698	94.6477	-43.4113	-212.463	55.5247	-46.4786	-220.755	48.2966	-10.4866	-234.398	94.7487	-45.4825	-232.569	62.6253	-52.0045	-232.213	49.93	-19.843	-267.591	107.267	-32.4211	-273.439	110.89	-44.3807	-281.966	125.278	-61.3742	-243.261	110.115	14.7223	-250.621	100.3	49.7476	-215.115	101.741	36.135	
203	1.69167	-189.082	71.4784	44.6761	-165.232	70.4452	27.1906	-144.831	76.1233	12.5892	-130.031	77.0956	1.54843	-192.842	91.2861	-39.8773	-196.849	59.6617	-50.2358	-203.852	51.291	-14.2244	-216.401	92.8977	-44.0965	-216.027	55.732	-47.8705	-217.346	47.4101	-10.5292	-241.291	93.5742	-45.0626	-235.862	57.9466	-48.4982	-236.801	49.0829	-15.6263	-268.543	105.81	-26.5566	-277.088	111.847	-45.0917	-283.735	124.474	-58.3778	-246.06	110.598	14.0263	-254.233	100.794	50.276	-211.196	100.409	35.8185	
204	1.7	-191.827	71.4914	42.7718	-166.337	69.6	27.2664	-148.948	72.4901	13.3572	-125.938	75.7387	2.94661	-191.937	85.1943	-44.3569	-204.891	56.0034	-48.5903	-204.531	50.7709	-12.4555	-221.656	90.0565	-46.5781	-222.21	54.9435	-50.1247	-224.214	46.7489	-10.6574	-240.868	91.4072	-45.5049	-239.606	55.6452	-48.2008	-238.594	47.0663	-19.0717	-271.467	104.856	-25.4513	-280.746	109.344	-42.1016	-291.841	122.93	-54.8108	-242.591	109.19	15.6171	-248.26	99.788	49.2893	-212.663	100.648	35.9559	
205	1.70833	-186.861	70.9313	42.3741	-167.889	66.2836	28.6274	-145.774	73.8855	11.0755	-125.455	73.0437	8.63601	-195.681	85.278	-42.5849	-202.243	51.5651	-49.5956	-206.389	47.2613	-14.1969	-220.106	86.9295	-47.9104	-225.855	51.0242	-49.1861	-223.61	44.8826	-8.79575	-246.549	86.7309	-48.6693	-244.076	51.9944	-48.2365	-236.088	44.082	-19.3965	-272.977	104.332	-29.9306	-282.893	105.962	-41.9202	-289.943	120.832	-54.2788	-242.885	109.692	15.054	-252.419	99.8322	48.6221	-214.144	99.81	34.0759	
206	1.71667	-188.209	69.9108	40.1525	-167.893	65.1042	26.1529	-146.893	70.7155	11.5021	-122.477	72.7418	10.0142	-199.26	81.4048	-44.8102	-204.493	46.8424	-47.8399	-205.232	43.8119	-13.0546	-220.942	81.4093	-49.1142	-227.319	46.9405	-47.3516	-221.807	41.3315	-10.0165	-247.212	84.8267	-46.4425	-243.064	49.4095	-48.9595	-239.421	43.1818	-14.5582	-272.715	98.4059	-26.1639	-282.47	102.517	-43.6446	-292.515	119.565	-58.0895	-242.391	107.369	13.6985	-251.5	98.8521	50.0705	-210.914	97.5989	30.5274	
207	1.725	-189.65	68.0036	41.6924	-167.564	61.7245	26.6897	-144.343	67.9728	13.0925	-124.94	66.3577	13.9464	-197.194	76.4868	-46.5516	-204.168	45.7898	-49.35	-206.707	41.307	-15.117	-222.713	78.6106	-49.8751	-226.347	44.6086	-48.4717	-224.206	39.022	-7.95852	-242.215	81.3534	-48.1055	-246.81	48.4612	-48.8174	-238.336	40.4919	-17.9825	-276.507	96.6127	-29.0387	-284.981	100.063	-42.7614	-296.075	113.238	-58.2552	-242.483	104.845	13.4049	-248.836	100.293	46.5379	-212.768	95.5291	33.3462	
208	1.73333	-189.645	65.0688	42.3831	-169.623	60.4417	23.6962	-143.76	62.9905	13.4779	-122.794	62.0321	11.1454	-199.229	74.2983	-46.6634	-204.027	41.0855	-48.8702	-207.837	38.6543	-14.3475	-223.062	78.4688	-49.3463	-225.354	42.1566	-47.3181	-225.353	38.802	-5.55991	-247.077	80.8294	-47.9306	-241.908	44.4938	-46.9019	-238.847	39.5154	-13.9134	-271.777	96.9019	-31.8066	-283.32	98.8578	-48.1135	-291.176	110.118	-58.2833	-243.121	102.835	13.9406	-249.995	98.2693	46.8074	-214.167	95.2063	31.1742	
209	1.74167	-189.743	62.9497	41.0479	-170.385	54.8143	26.049	-143.941	58.7484	10.0129	-126.154	55.8926	8.28037	-196.514	72.8816	-44.3502	-207.133	40.446	-47.8357	-209.823	38.9098	-11.7406	-224.214	75.3266	-49.8892	-227.165	37.9245	-45.8778	-221.529	34.9414	-6.62341	-242.71	78.6088	-47.9025	-242.219	43.2203	-49.1098	-237.9	37.9352	-13.1016	-273.745	93.8148	-31.4325	-284.016	96.2153	-46.6802	-292.368	109.888	-64.4861	-243.304	103.146	12.1989	-245.137	97.9307	42.6178	-213.293	94.6653	32.2332	
210	1.75	-188.269	63.1591	37.7109	-170.332	51.5361	22.7579	-147.909	53.091	7.53106	-125.039	49.7417	4.60884	-193.285	67.4709	-47.7209	-204.623	35.7374	-47.0118	-209.751	37.0655	-13.0435	-221.707	71.5184	-51.0867	-224.849	39.1033	-47.6483	-224.135	37.0877	-3.99497	-244.797	75.7333	-48.706	-241.88	43.6459	-48.2822	-237.992	37.6362	-14.4144	-272.832	95.0157	-30.8609	-280.944	96.9657	-48.8872	-286.398	109.9	-66.6173	-239.852	103.204	13.7886	-247.744	95.8002	46.7645	-209.455	93.3167	27.8225	
211	1.75833	-190.544	60.2135	37.3048	-170.416	50.4179	17.3261	-146.695	48.3089	3.77683	-131.001	42.8377	-1.88955	-192.979	66.2241	-48.7762	-207.132	37.7833	-48.7111	-208.986	37.8977	-10.2398	-222.692	72.8768	-50.5295	-225.998	38.703	-47.4627	-225.057	37.8651	-4.32362	-244.528	73.5819	-51.2444	-243.607	40.0546	-45.7056	-238.414	38.8033	-11.0002	-270.29	95.8983	-35.7166	-276.119	96.2185	-49.2744	-281.556	109.169	-67.0537	-241.818	104.408	9.86989	-246.747	97.5801	42.5254	-205.803	93.2843	28.9851	
212	1.76667	-185.209	58.8623	36.9032	-168.259	46.3183	20.954	-149.256	46.4141	-0.698377	-133.483	39.8339	-9.24658	-194.582	67.2155	-48.1265	-206.027	37.6703	-49.6442	-206.588	36.3398	-12.4319	-217.821	73.2617	-48.8429	-228.558	38.5346	-45.2747	-221.926	37.0793	-5.92482	-242.544	75.635	-49.0558	-242.183	40.1442	-44.2618	-238.87	36.9934	-14.3658	-266.764	94.3003	-31.3616	-274.921	96.5053	-50.1278	-283.425	106.157	-67.0246	-242.798	102.122	11.6205	-246.891	96.8359	46.0948	-211.481	91.7598	27.1256	
213	1.775	-191.055	59.805	36.9241	-168.763	46.3631	17.2315	-153.191	48.2508	-4.59272	-131.402	42.6509	-15.986	-197.126	68.403	-49.6759	-205.514	38.5878	-48.8418	-209.937	38.5673	-14.0712	-221.433	70.2447	-51.7652	-225.686	39.3133	-46.9402	-225.172	37.9044	-6.80016	-244.171	75.9329	-48.553	-242.524	40.6329	-45.2157	-236.63	36.4888	-14.2249	-266.929	93.7905	-34.6127	-272.865	96.1801	-53.588	-281.623	108.201	-71.2247	-243.932	102.701	10.7827	-247.842	95.3072	44.4144	-208.887	91.0538	30.313	
214	1.78333	-189.761	60.5633	35.8727	-170.835	49.6384	11.94	-154.581	48.9958	-8.60608	-138.843	42.4909	-19.4146	-195.574	70.15	-49.0859	-207.369	41.0126	-47.7976	-204.681	40.6963	-11.3231	-220.197	74.3867	-49.5348	-221.005	37.103	-43.6715	-219.056	38.2548	-5.09712	-245.051	75.3207	-47.8168	-244.248	41.7802	-45.9349	-238.458	38.6813	-10.681	-267.779	93.356	-34.9827	-274.4	94.2862	-55.9003	-281.039	104.802	-75.6206	-241.701	104.374	9.56345	-246.072	95.0633	44.0592	-211.351	95.1974	29.5373	
215	1.79167	-190.68	61.3598	32.8903	-171.612	49.6288	12.0032	-155.551	48.3937	-9.84251	-141.342	42.115	-20.8275	-195.849	73.767	-45.2456	-206.355	41.9312	-48.6438	-206.366	41.0575	-13.4838	-221.883	71.6794	-50.7943	-222.103	39.7409	-45.5714	-219.116	39.8485	-2.66264	-241.19	71.6013	-50.5573	-244.504	40.8208	-43.3327	-236.028	37.4893	-11.0711	-268.15	92.3503	-38.2198	-270.445	91.8385	-55.0001	-274.894	100.232	-78.5179	-243.495	102.76	9.12591	-244.153	96.8266	45.8728	-209.386	96.3727	26.7924	
216	1.8	-191.458	59.825	36.9916	-171.883	49.526	9.24188	-156.367	47.3686	-9.35544	-141.432	43.414	-24.9775	-193.507	72.3255	-46.5245	-205.235	39.1799	-45.5316	-204.551	40.2907	-11.9536	-216.411	73.3353	-49.1401	-220.317	36.3079	-42.6888	-221.667	41.5402	-2.81485	-240.351	74.1226	-46.5871	-242.341	39.5473	-40.5412	-235.209	38.9538	-7.06155	-262.55	92.0028	-39.0107	-266.852	89.5613	-55.7402	-268.093	95.3709	-80.7055	-238.593	103.705	9.25148	-246.961	96.9799	42.2335	-210.118	94.8221	27.5815	
217	1.80833	-186.504	59.9022	33.2375	-170.95	49.0861	9.11084	-158.304	46.4328	-9.71498	-144.513	43.1573	-26.5615	-191.962	69.9017	-47.3025	-204.511	41.2661	-48.9639	-202.233	39.8722	-12.2785	-217.74	69.3946	-51.8679	-220.611	37.2757	-43.1628	-220.76	40.2854	-3.06926	-239.758	70.2954	-47.924	-243.467	39.7876	-40.136	-234.459	40.0899	-4.49187	-261.713	90.9023	-36.5815	-268.137	88.5265	-56.5057	-265.812	89.9494	-83.7909	-237.689	104.248	9.17825	-245.258	95.6767	43.7613	-209.43	94.5925	27.5865	
218	1.81667	-188.078	60.4977	32.6504	-172.047	48.7285	11.1405	-157.836	49.2143	-12.336	-143.217	43.2162	-28.394	-193.371	71.0706	-46.8577	-205.1	41.1922	-48.8019	-202.528	40.05	-11.9877	-220.129	70.3317	-52.1489	-223.921	38.5501	-43.4694	-220.831	42.254	-2.31426	-241.621	72.4669	-46.762	-240.349	37.5674	-38.5076	-238.155	39.3163	-7.06372	-263.904	90.8824	-36.1191	-262.545	86.7772	-60.0289	-263.053	88.319	-85.2683	-238.92	103.713	9.11163	-246.243	98.6395	42.3913	-210.013	95.8747	29.7388	
219	1.825	-189.83	60.5988	33.2006	-170.889	49.1668	10.9409	-156.931	51.4779	-16.1041	-146.81	44.0092	-29.322	-193.011	71.5959	-47.1557	-206.186	40.4705	-48.8409	-201.984	42.1207	-10.1644	-219.666	71.3987	-49.96	-225.732	37.7986	-43.2143	-223.03	41.6686	-3.00416	-241.525	68.2235	-49.2011	-239.625	39.1313	-40.8314	-237.729	39.7936	-4.73794	-259.762	88.8516	-38.4475	-265.428	85.2808	-58.0511	-260.711	84.7468	-82.3724	-241.028	102.061	7.27337	-244.332	98.7211	42.2243	-210.98	95.7128	25.8351	
220	1.83333	-188.573	60.6873	34.399	-171.401	50.2382	10.2797	-157.022	49.0803	-13.5162	-147.693	46.107	-32.4999	-194.573	71.4168	-47.3144	-204.296	39.0356	-46.5654	-203.178	39.0562	-12.5749	-216.865	72.2438	-49.478	-221.169	36.412	-42.9105	-219.184	41.8012	-1.52472	-241.67	69.0412	-50.473	-243.379	39.1633	-40.5203	-238.5	39.7324	-7.7401	-262.897	89.3292	-43.2769	-263.102	86.0984	-58.9881	-257.785	84.2396	-85.5952	-244.065	103.003	5.33055	-243.62	96.8034	39.3666	-208.772	95.8992	25.2969	
